<svg id="Layer_1" data-name="Layer 1" xmlns="http://www.w3.org/2000/svg" width="500px" height="500px" margin="0" viewBox="0 0 50 50"><defs><style>.cls-1{fill:#fff;}</style></defs><title>Artboard 1</title>

<g id="circle">
    <polygon class="cls-1" points="5.26 14.96 1.56 11.62 6.3 10.09 11.04 8.56 10 13.43 8.95 18.3 5.26 14.96"/><polygon class="cls-1" points="43.26 36.96 46.91 40.27 42.22 41.78 37.54 43.29 38.57 38.48 39.6 33.66 43.26 36.96"/><path class="cls-1" d="M9.79,43.56l2.92-3.82A19.19,19.19,0,0,1,35.85,9.17l2.92-3.82a24,24,0,0,0-29,38.21Z"/><path class="cls-1" d="M40.06,6.32l-2.92,3.81A19.19,19.19,0,0,1,14,40.71l-2.93,3.82a24,24,0,0,0,29-38.21Z"/>

    <animateTransform attributeName="transform"
        attributeType="XML"
        type="rotate"
        from="0 25 25"
        to="360 25 25"
        dur="10s"
        repeatCount="3"
        />
</g>
</svg>
